<?xml version="1.0" standalone="no"?>
<!DOCTYPE svg PUBLIC "-//W3C//DTD SVG 20010904//EN"
 "http://www.w3.org/TR/2001/REC-SVG-20010904/DTD/svg10.dtd">
<svg version="1.0" xmlns="http://www.w3.org/2000/svg"
 width="225.000000pt" height="225.000000pt" viewBox="0 0 225.000000 225.000000"
 preserveAspectRatio="xMidYMid meet">

<g transform="translate(0.000000,225.000000) scale(0.100000,-0.100000)"
fill="#000000" stroke="none">
<path d="M669 1446 c-45 -16 -100 -49 -122 -74 -16 -18 -15 -21 20 -55 41 -42
45 -43 64 -21 7 8 31 25 53 36 33 17 53 20 111 16 93 -6 151 -43 189 -120 14
-28 26 -58 26 -65 0 -10 -58 -13 -286 -13 l-287 0 5 -63 c7 -81 41 -149 107
-210 77 -72 128 -92 231 -92 73 1 93 5 143 30 31 15 76 47 99 69 38 37 88 124
88 154 0 29 22 8 45 -44 47 -107 136 -181 245 -204 198 -42 392 99 408 297 l5
63 -288 0 -287 0 6 28 c24 99 120 172 225 172 57 0 128 -25 164 -58 17 -15 20
-14 52 23 l33 40 -21 23 c-12 13 -44 36 -72 50 -45 24 -61 27 -155 27 -90 0
-111 -3 -147 -23 -93 -49 -156 -126 -183 -223 l-16 -61 -12 52 c-25 107 -107
202 -208 240 -64 23 -178 26 -235 6z m321 -408 c0 -27 -42 -80 -86 -107 -108
-69 -243 -41 -316 64 -15 22 -27 43 -28 48 0 4 97 7 215 7 165 0 215 -3 215
-12z m690 2 c0 -19 -27 -64 -52 -86 -45 -41 -90 -58 -159 -58 -57 0 -74 4
-115 30 -48 29 -94 84 -94 110 0 11 40 14 210 14 140 0 210 -4 210 -10z"/>
</g>
</svg>
